<?xml version="1.0" encoding="UTF-8"?>
<!-- Generator: visioncortex VTracer 0.6.12 -->
<svg version="1.1" xmlns="http://www.w3.org/2000/svg" viewBox="0 0 129 87" preserveAspectRatio="xMidYMid meet">
<path d="M0 0 C2.6886566611025557 1.9219294763774926 5.310304996085492 3.8937416022963642 7.89453125 5.953125 C7.329948199116188 9.541363945617078 6.4087381510585715 12.111695525540522 4.51953125 15.203125 C-1.4899599348205612 25.863439797420817 -3.057081674133059 37.19185192660698 -0.37890625 49.21484375 C1.3886190742207276 54.366533414496985 3.8116251291178997 58.817097041148344 7.0390625 63.19921875 C7.89453125 64.95312499999999 7.89453125 64.95312499999999 7.7109375 66.9921875 C5.035564823855722 73.41820225322692 -2.507297967677033 76.33874853619227 -8.45703125 78.97265625 C-18.51856153935269 82.69750005918515 -31.3155371327127 82.3078437461512 -41.10546875 77.953125 C-54.296255009952134 71.37765752902688 -61.232847407264664 62.07661183551639 -66.0234375 48.31640625 C-68.86873284991395 36.7633613728326 -66.70461078322563 24.313532705184713 -61.10546875 13.953125 C-46.95440646462974 -5.5349093472813315 -21.207979887441525 -13.978593032728753 0 0 Z " fill="#EE6429" transform="translate(67.10546875,6.046875)"/>
<path d="M0 0 C1.980000000000004 0 3.9599999999999937 0 6 0 C6.659999999999997 4.620000000000001 7.319999999999993 9.240000000000002 8 14 C8.329999999999998 9.379999999999995 8.659999999999997 4.759999999999998 9 0 C10.319999999999993 0 11.64 0 13 0 C13 13.200000000000003 13 26.400000000000006 13 40 C11.019999999999996 40 9.039999999999992 40 7 40 C6.340000000000003 35.38 5.680000000000007 30.759999999999998 5 26 C4.670000000000002 30.620000000000005 4.340000000000003 35.24 4 40 C2.680000000000007 40 1.3599999999999994 40 0 40 C0 26.799999999999997 0 13.599999999999994 0 0 Z " fill="#EE6429" transform="translate(75,25)"/>
<path d="M0 0 C3.0625 0.3125 3.0625 0.3125 4.9375 1.3125 C6.767389471988039 4.565636839089855 6.243783552743501 7.626401094215524 6.0625 11.3125 C4.7425 11.3125 3.4224999999999994 11.3125 2.0625 11.3125 C2.0625 9.002499999999998 2.0625 6.692499999999999 2.0625 4.3125 C0.7424999999999997 4.3125 -0.5775000000000006 4.3125 -1.9375 4.3125 C-1.2295247620346288 10.049540721443513 -0.11612047213868237 14.38790044613814 3.1875 19.1875 C6.706428053258115 24.61645746113905 7.307363866485062 29.9723793776691 6.0625 36.3125 C4.71484375 38.13671875 4.71484375 38.13671875 3.0625 39.3125 C-0.0256587493084659 39.69851984366356 -2.0393437602159743 39.79151666121814 -4.8125 38.3125 C-6.6423894719880465 35.05936316091014 -6.118783552743498 31.998598905784476 -5.9375 28.3125 C-4.6175 28.3125 -3.2974999999999994 28.3125 -1.9375 28.3125 C-1.6075000000000017 30.622500000000002 -1.2774999999999999 32.9325 -0.9375 35.3125 C-0.27749999999999986 35.3125 0.3825000000000003 35.3125 1.0625 35.3125 C1.7763920966290847 29.217976730629474 1.3303287460098403 25.207449174903196 -1.9375 19.9375 C-5.421470599480944 14.17744483434872 -6.044867078221838 8.946054708963509 -4.9375 2.3125 C-2.9375 0.3125 -2.9375 0.3125 0 0 Z " fill="#FFFFFF" transform="translate(28.9375,24.6875)"/>
<path d="M0 0 C3.299999999999997 0 6.599999999999994 0 10 0 C10 1.3200000000000003 10 2.6400000000000006 10 4 C8.019999999999996 4 6.040000000000006 4 4 4 C4 8.29 4 12.579999999999998 4 17 C5.980000000000004 17 7.959999999999994 17 10 17 C10 18.32 10 19.64 10 21 C8.019999999999996 21 6.040000000000006 21 4 21 C4 25.950000000000003 4 30.9 4 36 C5.980000000000004 36 7.959999999999994 36 10 36 C10 37.32 10 38.64 10 40 C6.700000000000003 40 3.4000000000000057 40 0 40 C0 26.799999999999997 0 13.599999999999994 0 0 Z " fill="#EE6429" transform="translate(95,25)"/>
<path d="M0 0 C1.6500000000000057 0 3.299999999999997 0 5 0 C5 11.880000000000003 5 23.760000000000005 5 36 C6.980000000000004 36 8.960000000000008 36 11 36 C11 37.32 11 38.64 11 40 C7.3700000000000045 40 3.739999999999995 40 0 40 C0 26.799999999999997 0 13.599999999999994 0 0 Z " fill="#EE6429" transform="translate(111,25)"/>
<path d="M0 0 C1.3200000000000003 0 2.6400000000000006 0 4 0 C4.990000000000002 3.960000000000001 5.980000000000004 7.920000000000002 7 12 C7.990000000000002 8.04 8.980000000000004 4.079999999999998 10 0 C11.32 0 12.64 0 14 0 C13.70956145329886 1.6252199528170266 13.417561076729854 3.250160789238791 13.125 4.875 C12.943242187499997 5.8920703125 12.761484375000002 6.909140624999999 12.57421875 7.95703125 C12.235360779798611 9.752747976441356 11.872745378262707 11.544723021105696 11.45703125 13.32421875 C9.49775360707794 21.765317166498818 9.35711287642745 30.37290472209466 9 39 C7.68 39 6.359999999999999 39 5 39 C4.990654296875 38.44763671875 4.981308593750001 37.8952734375 4.9716796875 37.326171875 C4.735183236318122 26.13200651905781 3.952135367039773 15.738694686644202 0.83984375 4.95703125 C0 2 0 2 0 0 Z " fill="#FFFFFF" transform="translate(41,25)"/>
<path d="M0 0 C2.969999999999999 0 5.939999999999998 0 9 0 C9 1.9800000000000004 9 3.960000000000001 9 6 C6.359999999999999 6 3.719999999999999 6 1 6 C0.6700000000000017 4.02 0.3400000000000034 2.039999999999999 0 0 Z " fill="#EE6429" transform="translate(120,20)"/>
</svg>
